# xmcd CD database file
#
# Track frame offsets:
#	150
#	27517
#	48816
#	69422
#
# Disc length: 1236 seconds
#
# Revision: 0
# Processed by: cddbd v1.5.1PL0 Copyright (c) Steve Scherf et al.
# Submitted via: CDex 1.51
#
DISCID=2c04d204
DTITLE=川嶋　あい - 525ページ
DYEAR=2004
DGENRE=Pop
TTITLE0=525ページ
TTITLE1=Luna 〜砂漠の物語〜
TTITLE2=流れ星
TTITLE3=Just After The Rain!
EXTD=YEAR: 2004
EXTT0=
EXTT1=
EXTT2=
EXTT3=
PLAYORDER=
